<svg width="389" height="374" viewBox="0 0 389 374" fill="none" xmlns="http://www.w3.org/2000/svg">
<path fill-rule="evenodd" clip-rule="evenodd" d="M194 374C297.277 374 388.5 268.777 388.5 165.5C388.5 62.2228 297.277 0 194 0C90.7228 0 0 97.7228 0 201C0 304.277 90.7228 374 194 374ZM200.078 311.417C227.781 323.806 248.814 330 263.178 330C283.357 330 298.918 323.242 309.862 309.728C321.149 296.213 329.528 276.081 335 249.332L306.784 241.308C301.312 250.318 296.182 256.231 291.394 259.046C286.948 261.862 281.134 263.27 273.952 263.27C242.829 263.27 210.167 259.609 175.967 252.289C194.093 221.599 212.219 185.418 230.346 143.747C248.472 102.075 257.535 72.7929 257.535 55.8992C257.535 39.0054 254.799 27.039 249.327 20C190.16 20 151.171 23.5195 132.361 30.5586L130.822 39.0054L136.465 44.0736C139.885 47.4523 143.305 51.9573 146.725 57.5885C150.487 63.2198 152.368 68.2879 152.368 72.7929C152.368 100.104 147.751 131.78 138.517 167.82C129.625 203.86 120.561 230.749 111.327 248.488C97.6469 251.022 85.5056 255.527 74.9034 262.003C64.3011 268.197 59 273.406 59 277.629C59 287.203 63.7881 297.48 73.3643 308.46C82.9405 319.441 90.1227 324.932 94.9108 324.932C112.695 324.932 131.848 313.81 152.368 291.567C156.814 292.411 172.717 299.028 200.078 311.417Z" fill="#85AA9F"/>
</svg>
